<mxfile host="app.diagrams.net" modified="2022-09-22T06:39:09.395Z" agent="5.0 (Windows)" etag="o_tskoELemADgKHyMTpO" version="20.3.3" type="github">
  <diagram id="R2lEEEUBdFMjLlhIrx00" name="Page-1">
    <mxGraphModel dx="2076" dy="1128" grid="1" gridSize="10" guides="1" tooltips="1" connect="1" arrows="1" fold="1" page="1" pageScale="1" pageWidth="1100" pageHeight="850" background="#CCCCFF" math="0" shadow="0" extFonts="Permanent Marker^https://fonts.googleapis.com/css?family=Permanent+Marker">
      <root>
        <mxCell id="0" />
        <mxCell id="1" parent="0" />
        <mxCell id="tbVaFVSC6KCaD0kcT_PX-4" value="Reports" style="whiteSpace=wrap;html=1;align=center;fillColor=#FF6666;" parent="1" vertex="1">
          <mxGeometry x="308" y="270" width="100" height="40" as="geometry" />
        </mxCell>
        <mxCell id="tbVaFVSC6KCaD0kcT_PX-6" value="user_id" style="ellipse;whiteSpace=wrap;html=1;align=center;fillColor=#ffe6cc;strokeColor=#d79b00;" parent="1" vertex="1">
          <mxGeometry x="308" y="180" width="100" height="40" as="geometry" />
        </mxCell>
        <mxCell id="tbVaFVSC6KCaD0kcT_PX-7" value="reg_no" style="ellipse;whiteSpace=wrap;html=1;align=center;fontStyle=4;fillColor=#f8cecc;strokeColor=#b85450;" parent="1" vertex="1">
          <mxGeometry x="138" y="200" width="100" height="40" as="geometry" />
        </mxCell>
        <mxCell id="tbVaFVSC6KCaD0kcT_PX-8" value="Issue/Return" style="ellipse;whiteSpace=wrap;html=1;align=center;fillColor=#ffe6cc;strokeColor=#d79b00;" parent="1" vertex="1">
          <mxGeometry x="138" y="340" width="100" height="40" as="geometry" />
        </mxCell>
        <mxCell id="tbVaFVSC6KCaD0kcT_PX-9" value="Book_No" style="ellipse;whiteSpace=wrap;html=1;align=center;fillColor=#ffe6cc;strokeColor=#d79b00;" parent="1" vertex="1">
          <mxGeometry x="118" y="270" width="100" height="40" as="geometry" />
        </mxCell>
        <mxCell id="tbVaFVSC6KCaD0kcT_PX-10" value="" style="endArrow=none;html=1;rounded=0;entryX=0;entryY=0.5;entryDx=0;entryDy=0;exitX=1;exitY=0.5;exitDx=0;exitDy=0;" parent="1" source="tbVaFVSC6KCaD0kcT_PX-8" target="tbVaFVSC6KCaD0kcT_PX-4" edge="1">
          <mxGeometry relative="1" as="geometry">
            <mxPoint x="283" y="350" as="sourcePoint" />
            <mxPoint x="378" y="350" as="targetPoint" />
          </mxGeometry>
        </mxCell>
        <mxCell id="tbVaFVSC6KCaD0kcT_PX-11" value="" style="endArrow=none;html=1;rounded=0;entryX=1;entryY=0.5;entryDx=0;entryDy=0;" parent="1" target="tbVaFVSC6KCaD0kcT_PX-7" edge="1">
          <mxGeometry relative="1" as="geometry">
            <mxPoint x="308" y="290" as="sourcePoint" />
            <mxPoint x="278" y="250" as="targetPoint" />
          </mxGeometry>
        </mxCell>
        <mxCell id="tbVaFVSC6KCaD0kcT_PX-12" value="" style="endArrow=none;html=1;rounded=0;entryX=0.5;entryY=1;entryDx=0;entryDy=0;exitX=0.5;exitY=0;exitDx=0;exitDy=0;" parent="1" source="tbVaFVSC6KCaD0kcT_PX-4" target="tbVaFVSC6KCaD0kcT_PX-6" edge="1">
          <mxGeometry relative="1" as="geometry">
            <mxPoint x="328" y="320" as="sourcePoint" />
            <mxPoint x="358" y="240" as="targetPoint" />
          </mxGeometry>
        </mxCell>
        <mxCell id="tbVaFVSC6KCaD0kcT_PX-13" value="" style="endArrow=none;html=1;rounded=0;entryX=1;entryY=0.5;entryDx=0;entryDy=0;exitX=0;exitY=0.5;exitDx=0;exitDy=0;" parent="1" source="tbVaFVSC6KCaD0kcT_PX-4" target="tbVaFVSC6KCaD0kcT_PX-9" edge="1">
          <mxGeometry relative="1" as="geometry">
            <mxPoint x="308" y="290" as="sourcePoint" />
            <mxPoint x="288" y="260" as="targetPoint" />
          </mxGeometry>
        </mxCell>
        <mxCell id="tbVaFVSC6KCaD0kcT_PX-16" value="Manages" style="shape=rhombus;perimeter=rhombusPerimeter;whiteSpace=wrap;html=1;align=center;fillColor=#66FF66;" parent="1" vertex="1">
          <mxGeometry x="298" y="370" width="120" height="60" as="geometry" />
        </mxCell>
        <mxCell id="tbVaFVSC6KCaD0kcT_PX-17" value="" style="endArrow=none;html=1;rounded=0;exitX=0.5;exitY=0;exitDx=0;exitDy=0;entryX=0.5;entryY=1;entryDx=0;entryDy=0;" parent="1" source="tbVaFVSC6KCaD0kcT_PX-16" target="tbVaFVSC6KCaD0kcT_PX-4" edge="1">
          <mxGeometry relative="1" as="geometry">
            <mxPoint x="357.5" y="370" as="sourcePoint" />
            <mxPoint x="358" y="310" as="targetPoint" />
          </mxGeometry>
        </mxCell>
        <mxCell id="tbVaFVSC6KCaD0kcT_PX-18" value="N" style="resizable=0;html=1;align=right;verticalAlign=bottom;" parent="tbVaFVSC6KCaD0kcT_PX-17" connectable="0" vertex="1">
          <mxGeometry x="1" relative="1" as="geometry">
            <mxPoint x="-10" y="20" as="offset" />
          </mxGeometry>
        </mxCell>
        <mxCell id="tbVaFVSC6KCaD0kcT_PX-19" value="" style="endArrow=none;html=1;rounded=0;exitX=0.5;exitY=1;exitDx=0;exitDy=0;entryX=0.5;entryY=0;entryDx=0;entryDy=0;" parent="1" source="tbVaFVSC6KCaD0kcT_PX-16" target="tbVaFVSC6KCaD0kcT_PX-21" edge="1">
          <mxGeometry relative="1" as="geometry">
            <mxPoint x="358" y="430" as="sourcePoint" />
            <mxPoint x="358" y="460" as="targetPoint" />
          </mxGeometry>
        </mxCell>
        <mxCell id="tbVaFVSC6KCaD0kcT_PX-20" value="1" style="resizable=0;html=1;align=right;verticalAlign=bottom;" parent="tbVaFVSC6KCaD0kcT_PX-19" connectable="0" vertex="1">
          <mxGeometry x="1" relative="1" as="geometry">
            <mxPoint x="-10" y="-10" as="offset" />
          </mxGeometry>
        </mxCell>
        <mxCell id="tbVaFVSC6KCaD0kcT_PX-21" value="Staff" style="whiteSpace=wrap;html=1;align=center;fillColor=#FF6666;strokeColor=#6c8ebf;" parent="1" vertex="1">
          <mxGeometry x="308" y="480" width="100" height="40" as="geometry" />
        </mxCell>
        <mxCell id="tbVaFVSC6KCaD0kcT_PX-22" value="staff_id" style="ellipse;whiteSpace=wrap;html=1;align=center;fontStyle=4;fillColor=#f8cecc;strokeColor=#b85450;" parent="1" vertex="1">
          <mxGeometry x="138" y="440" width="100" height="40" as="geometry" />
        </mxCell>
        <mxCell id="tbVaFVSC6KCaD0kcT_PX-23" value="Staff_Name" style="ellipse;whiteSpace=wrap;html=1;align=center;fillColor=#ffe6cc;strokeColor=#d79b00;" parent="1" vertex="1">
          <mxGeometry x="138" y="520" width="100" height="40" as="geometry" />
        </mxCell>
        <mxCell id="tbVaFVSC6KCaD0kcT_PX-24" value="" style="endArrow=none;html=1;rounded=0;entryX=0;entryY=0;entryDx=0;entryDy=0;exitX=1;exitY=0.5;exitDx=0;exitDy=0;" parent="1" source="tbVaFVSC6KCaD0kcT_PX-22" target="tbVaFVSC6KCaD0kcT_PX-21" edge="1">
          <mxGeometry relative="1" as="geometry">
            <mxPoint x="238" y="460" as="sourcePoint" />
            <mxPoint x="308" y="390" as="targetPoint" />
          </mxGeometry>
        </mxCell>
        <mxCell id="tbVaFVSC6KCaD0kcT_PX-25" value="" style="endArrow=none;html=1;rounded=0;entryX=0;entryY=1;entryDx=0;entryDy=0;exitX=1;exitY=0.5;exitDx=0;exitDy=0;" parent="1" source="tbVaFVSC6KCaD0kcT_PX-23" target="tbVaFVSC6KCaD0kcT_PX-21" edge="1">
          <mxGeometry relative="1" as="geometry">
            <mxPoint x="258" y="380" as="sourcePoint" />
            <mxPoint x="328" y="310" as="targetPoint" />
            <Array as="points" />
          </mxGeometry>
        </mxCell>
        <mxCell id="tbVaFVSC6KCaD0kcT_PX-26" value="" style="endArrow=none;html=1;rounded=0;entryX=1;entryY=0.5;entryDx=0;entryDy=0;exitX=0;exitY=0.5;exitDx=0;exitDy=0;" parent="1" source="tbVaFVSC6KCaD0kcT_PX-28" target="tbVaFVSC6KCaD0kcT_PX-21" edge="1">
          <mxGeometry relative="1" as="geometry">
            <mxPoint x="498" y="450" as="sourcePoint" />
            <mxPoint x="438" y="490" as="targetPoint" />
          </mxGeometry>
        </mxCell>
        <mxCell id="tbVaFVSC6KCaD0kcT_PX-27" value="N" style="resizable=0;html=1;align=right;verticalAlign=bottom;" parent="tbVaFVSC6KCaD0kcT_PX-26" connectable="0" vertex="1">
          <mxGeometry x="1" relative="1" as="geometry">
            <mxPoint x="20" y="-10" as="offset" />
          </mxGeometry>
        </mxCell>
        <mxCell id="tbVaFVSC6KCaD0kcT_PX-28" value="Login" style="shape=rhombus;perimeter=rhombusPerimeter;whiteSpace=wrap;html=1;align=center;fillColor=#66FF66;" parent="1" vertex="1">
          <mxGeometry x="498" y="420" width="120" height="60" as="geometry" />
        </mxCell>
        <mxCell id="tbVaFVSC6KCaD0kcT_PX-31" value="" style="endArrow=none;html=1;rounded=0;exitX=1;exitY=0;exitDx=0;exitDy=0;entryX=0;entryY=0.5;entryDx=0;entryDy=0;" parent="1" source="tbVaFVSC6KCaD0kcT_PX-28" target="tbVaFVSC6KCaD0kcT_PX-35" edge="1">
          <mxGeometry relative="1" as="geometry">
            <mxPoint x="558" y="390" as="sourcePoint" />
            <mxPoint x="648" y="370" as="targetPoint" />
          </mxGeometry>
        </mxCell>
        <mxCell id="tbVaFVSC6KCaD0kcT_PX-32" value="1" style="resizable=0;html=1;align=right;verticalAlign=bottom;" parent="tbVaFVSC6KCaD0kcT_PX-31" connectable="0" vertex="1">
          <mxGeometry x="1" relative="1" as="geometry">
            <mxPoint x="-10" y="10" as="offset" />
          </mxGeometry>
        </mxCell>
        <mxCell id="tbVaFVSC6KCaD0kcT_PX-35" value="Authentication System" style="whiteSpace=wrap;html=1;align=center;fillColor=#FF6666;" parent="1" vertex="1">
          <mxGeometry x="648" y="350" width="100" height="40" as="geometry" />
        </mxCell>
        <mxCell id="tbVaFVSC6KCaD0kcT_PX-36" value="" style="endArrow=none;html=1;rounded=0;exitX=0.75;exitY=0;exitDx=0;exitDy=0;entryX=0.5;entryY=1;entryDx=0;entryDy=0;" parent="1" source="tbVaFVSC6KCaD0kcT_PX-35" target="tbVaFVSC6KCaD0kcT_PX-39" edge="1">
          <mxGeometry relative="1" as="geometry">
            <mxPoint x="733" y="350" as="sourcePoint" />
            <mxPoint x="778" y="280" as="targetPoint" />
          </mxGeometry>
        </mxCell>
        <mxCell id="tbVaFVSC6KCaD0kcT_PX-37" value="" style="endArrow=none;html=1;rounded=0;exitX=0.25;exitY=0;exitDx=0;exitDy=0;entryX=0.5;entryY=1;entryDx=0;entryDy=0;" parent="1" source="tbVaFVSC6KCaD0kcT_PX-35" target="tbVaFVSC6KCaD0kcT_PX-38" edge="1">
          <mxGeometry relative="1" as="geometry">
            <mxPoint x="668" y="350" as="sourcePoint" />
            <mxPoint x="618" y="280" as="targetPoint" />
          </mxGeometry>
        </mxCell>
        <mxCell id="tbVaFVSC6KCaD0kcT_PX-38" value="login_id" style="ellipse;whiteSpace=wrap;html=1;align=center;fontStyle=4;fillColor=#f8cecc;strokeColor=#b85450;" parent="1" vertex="1">
          <mxGeometry x="568" y="240" width="100" height="40" as="geometry" />
        </mxCell>
        <mxCell id="tbVaFVSC6KCaD0kcT_PX-39" value="password" style="ellipse;whiteSpace=wrap;html=1;align=center;fillColor=#ffe6cc;strokeColor=#d79b00;" parent="1" vertex="1">
          <mxGeometry x="728" y="240" width="100" height="40" as="geometry" />
        </mxCell>
        <mxCell id="tbVaFVSC6KCaD0kcT_PX-40" value="" style="endArrow=none;html=1;rounded=0;entryX=0.5;entryY=1;entryDx=0;entryDy=0;exitX=0.5;exitY=0;exitDx=0;exitDy=0;" parent="1" source="tbVaFVSC6KCaD0kcT_PX-43" target="tbVaFVSC6KCaD0kcT_PX-21" edge="1">
          <mxGeometry relative="1" as="geometry">
            <mxPoint x="358" y="600" as="sourcePoint" />
            <mxPoint x="438" y="590" as="targetPoint" />
          </mxGeometry>
        </mxCell>
        <mxCell id="tbVaFVSC6KCaD0kcT_PX-41" value="N" style="resizable=0;html=1;align=right;verticalAlign=bottom;" parent="tbVaFVSC6KCaD0kcT_PX-40" connectable="0" vertex="1">
          <mxGeometry x="1" relative="1" as="geometry">
            <mxPoint x="20" y="150" as="offset" />
          </mxGeometry>
        </mxCell>
        <mxCell id="tbVaFVSC6KCaD0kcT_PX-42" value="Readers" style="whiteSpace=wrap;html=1;align=center;fillColor=#FF6666;" parent="1" vertex="1">
          <mxGeometry x="308" y="680" width="100" height="40" as="geometry" />
        </mxCell>
        <mxCell id="tbVaFVSC6KCaD0kcT_PX-47" style="edgeStyle=orthogonalEdgeStyle;rounded=0;orthogonalLoop=1;jettySize=auto;html=1;exitX=1;exitY=0.5;exitDx=0;exitDy=0;" parent="1" source="tbVaFVSC6KCaD0kcT_PX-43" edge="1">
          <mxGeometry relative="1" as="geometry">
            <mxPoint x="418" y="590" as="targetPoint" />
          </mxGeometry>
        </mxCell>
        <mxCell id="tbVaFVSC6KCaD0kcT_PX-43" value="Keeps track of" style="shape=rhombus;perimeter=rhombusPerimeter;whiteSpace=wrap;html=1;align=center;fillColor=#66FF66;" parent="1" vertex="1">
          <mxGeometry x="298" y="560" width="120" height="60" as="geometry" />
        </mxCell>
        <mxCell id="tbVaFVSC6KCaD0kcT_PX-45" value="" style="endArrow=none;html=1;rounded=0;entryX=0.5;entryY=0;entryDx=0;entryDy=0;exitX=0.5;exitY=1;exitDx=0;exitDy=0;" parent="1" source="tbVaFVSC6KCaD0kcT_PX-43" target="tbVaFVSC6KCaD0kcT_PX-42" edge="1">
          <mxGeometry relative="1" as="geometry">
            <mxPoint x="278" y="590" as="sourcePoint" />
            <mxPoint x="438" y="590" as="targetPoint" />
          </mxGeometry>
        </mxCell>
        <mxCell id="tbVaFVSC6KCaD0kcT_PX-46" value="M" style="resizable=0;html=1;align=right;verticalAlign=bottom;" parent="tbVaFVSC6KCaD0kcT_PX-45" connectable="0" vertex="1">
          <mxGeometry x="1" relative="1" as="geometry">
            <mxPoint x="20" y="-140" as="offset" />
          </mxGeometry>
        </mxCell>
        <mxCell id="tbVaFVSC6KCaD0kcT_PX-48" value="User_id" style="ellipse;whiteSpace=wrap;html=1;align=center;fontStyle=4;fillColor=#f8cecc;strokeColor=#b85450;" parent="1" vertex="1">
          <mxGeometry x="168" y="600" width="100" height="40" as="geometry" />
        </mxCell>
        <mxCell id="tbVaFVSC6KCaD0kcT_PX-49" value="email" style="ellipse;whiteSpace=wrap;html=1;align=center;fillColor=#ffe6cc;strokeColor=#d79b00;" parent="1" vertex="1">
          <mxGeometry x="138" y="650" width="100" height="40" as="geometry" />
        </mxCell>
        <mxCell id="tbVaFVSC6KCaD0kcT_PX-50" value="Name" style="ellipse;whiteSpace=wrap;html=1;align=center;fillColor=#ffe6cc;strokeColor=#d79b00;" parent="1" vertex="1">
          <mxGeometry x="138" y="710" width="100" height="40" as="geometry" />
        </mxCell>
        <mxCell id="tbVaFVSC6KCaD0kcT_PX-51" value="First_name" style="ellipse;whiteSpace=wrap;html=1;align=center;fillColor=#ffe6cc;strokeColor=#d79b00;" parent="1" vertex="1">
          <mxGeometry x="8" y="680" width="100" height="40" as="geometry" />
        </mxCell>
        <mxCell id="tbVaFVSC6KCaD0kcT_PX-52" value="Last_name" style="ellipse;whiteSpace=wrap;html=1;align=center;fillColor=#ffe6cc;strokeColor=#d79b00;" parent="1" vertex="1">
          <mxGeometry x="8" y="740" width="100" height="40" as="geometry" />
        </mxCell>
        <mxCell id="tbVaFVSC6KCaD0kcT_PX-53" value="Phone_no" style="ellipse;shape=doubleEllipse;margin=3;whiteSpace=wrap;html=1;align=center;fillColor=#fad7ac;strokeColor=#b46504;" parent="1" vertex="1">
          <mxGeometry x="168" y="760" width="100" height="40" as="geometry" />
        </mxCell>
        <mxCell id="tbVaFVSC6KCaD0kcT_PX-54" value="Address" style="ellipse;whiteSpace=wrap;html=1;align=center;fillColor=#ffe6cc;strokeColor=#d79b00;" parent="1" vertex="1">
          <mxGeometry x="298" y="760" width="100" height="40" as="geometry" />
        </mxCell>
        <mxCell id="tbVaFVSC6KCaD0kcT_PX-56" value="" style="endArrow=none;html=1;rounded=0;exitX=1;exitY=0.5;exitDx=0;exitDy=0;entryX=0;entryY=0;entryDx=0;entryDy=0;" parent="1" source="tbVaFVSC6KCaD0kcT_PX-48" target="tbVaFVSC6KCaD0kcT_PX-42" edge="1">
          <mxGeometry relative="1" as="geometry">
            <mxPoint x="278" y="590" as="sourcePoint" />
            <mxPoint x="438" y="590" as="targetPoint" />
          </mxGeometry>
        </mxCell>
        <mxCell id="tbVaFVSC6KCaD0kcT_PX-57" value="" style="endArrow=none;html=1;rounded=0;exitX=1;exitY=0.5;exitDx=0;exitDy=0;entryX=0;entryY=0.25;entryDx=0;entryDy=0;" parent="1" source="tbVaFVSC6KCaD0kcT_PX-49" target="tbVaFVSC6KCaD0kcT_PX-42" edge="1">
          <mxGeometry relative="1" as="geometry">
            <mxPoint x="278" y="630" as="sourcePoint" />
            <mxPoint x="318" y="690" as="targetPoint" />
          </mxGeometry>
        </mxCell>
        <mxCell id="tbVaFVSC6KCaD0kcT_PX-58" value="" style="endArrow=none;html=1;rounded=0;exitX=1;exitY=0.5;exitDx=0;exitDy=0;entryX=0;entryY=0.75;entryDx=0;entryDy=0;" parent="1" source="tbVaFVSC6KCaD0kcT_PX-50" target="tbVaFVSC6KCaD0kcT_PX-42" edge="1">
          <mxGeometry relative="1" as="geometry">
            <mxPoint x="248" y="680" as="sourcePoint" />
            <mxPoint x="318" y="700" as="targetPoint" />
          </mxGeometry>
        </mxCell>
        <mxCell id="tbVaFVSC6KCaD0kcT_PX-59" value="" style="endArrow=none;html=1;rounded=0;exitX=1;exitY=0.5;exitDx=0;exitDy=0;entryX=0;entryY=1;entryDx=0;entryDy=0;" parent="1" source="tbVaFVSC6KCaD0kcT_PX-53" target="tbVaFVSC6KCaD0kcT_PX-42" edge="1">
          <mxGeometry relative="1" as="geometry">
            <mxPoint x="248" y="740" as="sourcePoint" />
            <mxPoint x="318" y="720" as="targetPoint" />
          </mxGeometry>
        </mxCell>
        <mxCell id="tbVaFVSC6KCaD0kcT_PX-60" value="" style="endArrow=none;html=1;rounded=0;exitX=1;exitY=0.5;exitDx=0;exitDy=0;entryX=0;entryY=0.5;entryDx=0;entryDy=0;" parent="1" source="tbVaFVSC6KCaD0kcT_PX-51" target="tbVaFVSC6KCaD0kcT_PX-50" edge="1">
          <mxGeometry relative="1" as="geometry">
            <mxPoint x="278" y="790" as="sourcePoint" />
            <mxPoint x="318" y="730" as="targetPoint" />
          </mxGeometry>
        </mxCell>
        <mxCell id="tbVaFVSC6KCaD0kcT_PX-61" value="" style="endArrow=none;html=1;rounded=0;exitX=1;exitY=0.5;exitDx=0;exitDy=0;entryX=0;entryY=0.5;entryDx=0;entryDy=0;fontStyle=1" parent="1" source="tbVaFVSC6KCaD0kcT_PX-52" target="tbVaFVSC6KCaD0kcT_PX-50" edge="1">
          <mxGeometry relative="1" as="geometry">
            <mxPoint x="108" y="810" as="sourcePoint" />
            <mxPoint x="148" y="750" as="targetPoint" />
          </mxGeometry>
        </mxCell>
        <mxCell id="tbVaFVSC6KCaD0kcT_PX-62" value="" style="endArrow=none;html=1;rounded=0;exitX=0.5;exitY=0;exitDx=0;exitDy=0;entryX=0.25;entryY=1;entryDx=0;entryDy=0;" parent="1" source="tbVaFVSC6KCaD0kcT_PX-54" target="tbVaFVSC6KCaD0kcT_PX-42" edge="1">
          <mxGeometry relative="1" as="geometry">
            <mxPoint x="278" y="790" as="sourcePoint" />
            <mxPoint x="318" y="730" as="targetPoint" />
          </mxGeometry>
        </mxCell>
        <mxCell id="tbVaFVSC6KCaD0kcT_PX-63" value="" style="endArrow=none;html=1;rounded=0;exitX=1;exitY=0.5;exitDx=0;exitDy=0;entryX=0;entryY=0.5;entryDx=0;entryDy=0;" parent="1" source="tbVaFVSC6KCaD0kcT_PX-42" target="tbVaFVSC6KCaD0kcT_PX-65" edge="1">
          <mxGeometry relative="1" as="geometry">
            <mxPoint x="418" y="699.5" as="sourcePoint" />
            <mxPoint x="508" y="700" as="targetPoint" />
          </mxGeometry>
        </mxCell>
        <mxCell id="tbVaFVSC6KCaD0kcT_PX-64" value="1" style="resizable=0;html=1;align=right;verticalAlign=bottom;" parent="tbVaFVSC6KCaD0kcT_PX-63" connectable="0" vertex="1">
          <mxGeometry x="1" relative="1" as="geometry">
            <mxPoint x="-60" as="offset" />
          </mxGeometry>
        </mxCell>
        <mxCell id="tbVaFVSC6KCaD0kcT_PX-65" value="Reserve/Return Date" style="shape=rhombus;perimeter=rhombusPerimeter;whiteSpace=wrap;html=1;align=center;fillColor=#66FF66;" parent="1" vertex="1">
          <mxGeometry x="508" y="670" width="120" height="60" as="geometry" />
        </mxCell>
        <mxCell id="tbVaFVSC6KCaD0kcT_PX-66" value="Reserve_Date" style="ellipse;whiteSpace=wrap;html=1;align=center;fontStyle=4;fillColor=#f8cecc;strokeColor=#b85450;" parent="1" vertex="1">
          <mxGeometry x="518" y="610" width="100" height="40" as="geometry" />
        </mxCell>
        <mxCell id="tbVaFVSC6KCaD0kcT_PX-67" value="Return_Date" style="ellipse;whiteSpace=wrap;html=1;align=center;fillColor=#ffe6cc;strokeColor=#d79b00;" parent="1" vertex="1">
          <mxGeometry x="518" y="750" width="100" height="40" as="geometry" />
        </mxCell>
        <mxCell id="tbVaFVSC6KCaD0kcT_PX-68" value="" style="endArrow=none;html=1;rounded=0;entryX=0.5;entryY=1;entryDx=0;entryDy=0;exitX=0.5;exitY=0;exitDx=0;exitDy=0;" parent="1" source="tbVaFVSC6KCaD0kcT_PX-65" target="tbVaFVSC6KCaD0kcT_PX-66" edge="1">
          <mxGeometry relative="1" as="geometry">
            <mxPoint x="278" y="590" as="sourcePoint" />
            <mxPoint x="438" y="590" as="targetPoint" />
          </mxGeometry>
        </mxCell>
        <mxCell id="tbVaFVSC6KCaD0kcT_PX-69" value="" style="endArrow=none;html=1;rounded=0;entryX=0.5;entryY=0;entryDx=0;entryDy=0;exitX=0.5;exitY=1;exitDx=0;exitDy=0;" parent="1" source="tbVaFVSC6KCaD0kcT_PX-65" target="tbVaFVSC6KCaD0kcT_PX-67" edge="1">
          <mxGeometry relative="1" as="geometry">
            <mxPoint x="578" y="680" as="sourcePoint" />
            <mxPoint x="578" y="660" as="targetPoint" />
            <Array as="points" />
          </mxGeometry>
        </mxCell>
        <mxCell id="tbVaFVSC6KCaD0kcT_PX-70" value="Due_Date" style="ellipse;whiteSpace=wrap;html=1;align=center;fillColor=#ffe6cc;strokeColor=#d79b00;" parent="1" vertex="1">
          <mxGeometry x="618" y="760" width="100" height="40" as="geometry" />
        </mxCell>
        <mxCell id="tbVaFVSC6KCaD0kcT_PX-71" value="" style="endArrow=none;html=1;rounded=0;entryX=1;entryY=1;entryDx=0;entryDy=0;exitX=0.5;exitY=0;exitDx=0;exitDy=0;" parent="1" source="tbVaFVSC6KCaD0kcT_PX-70" target="tbVaFVSC6KCaD0kcT_PX-65" edge="1">
          <mxGeometry relative="1" as="geometry">
            <mxPoint x="578" y="680" as="sourcePoint" />
            <mxPoint x="578" y="660" as="targetPoint" />
          </mxGeometry>
        </mxCell>
        <mxCell id="tbVaFVSC6KCaD0kcT_PX-72" value="Books" style="whiteSpace=wrap;html=1;align=center;fillColor=#FF6666;" parent="1" vertex="1">
          <mxGeometry x="760" y="680" width="100" height="40" as="geometry" />
        </mxCell>
        <mxCell id="tbVaFVSC6KCaD0kcT_PX-73" value="Publisher" style="whiteSpace=wrap;html=1;align=center;fillColor=#FF6666;" parent="1" vertex="1">
          <mxGeometry x="940" y="440" width="100" height="40" as="geometry" />
        </mxCell>
        <mxCell id="tbVaFVSC6KCaD0kcT_PX-74" value="Maintains" style="shape=rhombus;perimeter=rhombusPerimeter;whiteSpace=wrap;html=1;align=center;fillColor=#66FF66;" parent="1" vertex="1">
          <mxGeometry x="578" y="510" width="120" height="60" as="geometry" />
        </mxCell>
        <mxCell id="tbVaFVSC6KCaD0kcT_PX-75" value="Publishes" style="shape=rhombus;perimeter=rhombusPerimeter;whiteSpace=wrap;html=1;align=center;fillColor=#66FF66;" parent="1" vertex="1">
          <mxGeometry x="850" y="550" width="120" height="60" as="geometry" />
        </mxCell>
        <mxCell id="tbVaFVSC6KCaD0kcT_PX-76" value="" style="endArrow=none;html=1;rounded=0;exitX=1;exitY=1;exitDx=0;exitDy=0;entryX=0;entryY=0.5;entryDx=0;entryDy=0;" parent="1" source="tbVaFVSC6KCaD0kcT_PX-21" target="tbVaFVSC6KCaD0kcT_PX-74" edge="1">
          <mxGeometry relative="1" as="geometry">
            <mxPoint x="418" y="710" as="sourcePoint" />
            <mxPoint x="518" y="710" as="targetPoint" />
          </mxGeometry>
        </mxCell>
        <mxCell id="tbVaFVSC6KCaD0kcT_PX-77" value="1" style="resizable=0;html=1;align=right;verticalAlign=bottom;" parent="tbVaFVSC6KCaD0kcT_PX-76" connectable="0" vertex="1">
          <mxGeometry x="1" relative="1" as="geometry">
            <mxPoint x="-69" y="-10" as="offset" />
          </mxGeometry>
        </mxCell>
        <mxCell id="tbVaFVSC6KCaD0kcT_PX-78" value="" style="endArrow=none;html=1;rounded=0;entryX=0;entryY=0;entryDx=0;entryDy=0;exitX=1;exitY=1;exitDx=0;exitDy=0;" parent="1" source="tbVaFVSC6KCaD0kcT_PX-74" target="tbVaFVSC6KCaD0kcT_PX-72" edge="1">
          <mxGeometry relative="1" as="geometry">
            <mxPoint x="368" y="630" as="sourcePoint" />
            <mxPoint x="368" y="690" as="targetPoint" />
          </mxGeometry>
        </mxCell>
        <mxCell id="tbVaFVSC6KCaD0kcT_PX-79" value="N" style="resizable=0;html=1;align=right;verticalAlign=bottom;" parent="tbVaFVSC6KCaD0kcT_PX-78" connectable="0" vertex="1">
          <mxGeometry x="1" relative="1" as="geometry">
            <mxPoint x="-50" y="-60" as="offset" />
          </mxGeometry>
        </mxCell>
        <mxCell id="tbVaFVSC6KCaD0kcT_PX-80" value="" style="endArrow=none;html=1;rounded=0;entryX=0;entryY=0.5;entryDx=0;entryDy=0;exitX=1;exitY=0.5;exitDx=0;exitDy=0;" parent="1" source="tbVaFVSC6KCaD0kcT_PX-65" target="tbVaFVSC6KCaD0kcT_PX-72" edge="1">
          <mxGeometry relative="1" as="geometry">
            <mxPoint x="628" y="699.33" as="sourcePoint" />
            <mxPoint x="798" y="699.33" as="targetPoint" />
          </mxGeometry>
        </mxCell>
        <mxCell id="tbVaFVSC6KCaD0kcT_PX-81" value="N" style="resizable=0;html=1;align=right;verticalAlign=bottom;" parent="tbVaFVSC6KCaD0kcT_PX-80" connectable="0" vertex="1">
          <mxGeometry x="1" relative="1" as="geometry">
            <mxPoint x="-91" as="offset" />
          </mxGeometry>
        </mxCell>
        <mxCell id="tbVaFVSC6KCaD0kcT_PX-82" value="name" style="ellipse;whiteSpace=wrap;html=1;align=center;fillColor=#ffe6cc;strokeColor=#d79b00;" parent="1" vertex="1">
          <mxGeometry x="990" y="360" width="100" height="40" as="geometry" />
        </mxCell>
        <mxCell id="tbVaFVSC6KCaD0kcT_PX-83" value="Publisher_id" style="ellipse;whiteSpace=wrap;html=1;align=center;fontStyle=4;fillColor=#f8cecc;strokeColor=#b85450;" parent="1" vertex="1">
          <mxGeometry x="860" y="360" width="100" height="40" as="geometry" />
        </mxCell>
        <mxCell id="tbVaFVSC6KCaD0kcT_PX-84" value="Year of publication" style="ellipse;whiteSpace=wrap;html=1;align=center;fillColor=#ffe6cc;strokeColor=#d79b00;" parent="1" vertex="1">
          <mxGeometry x="990" y="520" width="100" height="40" as="geometry" />
        </mxCell>
        <mxCell id="tbVaFVSC6KCaD0kcT_PX-85" value="Price" style="ellipse;whiteSpace=wrap;html=1;align=center;fillColor=#ffe6cc;strokeColor=#d79b00;" parent="1" vertex="1">
          <mxGeometry x="940" y="680" width="100" height="40" as="geometry" />
        </mxCell>
        <mxCell id="tbVaFVSC6KCaD0kcT_PX-86" value="Authno" style="ellipse;whiteSpace=wrap;html=1;align=center;fillColor=#ffe6cc;strokeColor=#d79b00;" parent="1" vertex="1">
          <mxGeometry x="728" y="740" width="88" height="40" as="geometry" />
        </mxCell>
        <mxCell id="tbVaFVSC6KCaD0kcT_PX-87" value="Edition" style="ellipse;whiteSpace=wrap;html=1;align=center;fillColor=#ffe6cc;strokeColor=#d79b00;" parent="1" vertex="1">
          <mxGeometry x="980" y="750" width="100" height="40" as="geometry" />
        </mxCell>
        <mxCell id="tbVaFVSC6KCaD0kcT_PX-88" value="Category" style="ellipse;whiteSpace=wrap;html=1;align=center;fillColor=#ffe6cc;strokeColor=#d79b00;" parent="1" vertex="1">
          <mxGeometry x="970" y="800" width="100" height="40" as="geometry" />
        </mxCell>
        <mxCell id="tbVaFVSC6KCaD0kcT_PX-89" value="Title" style="ellipse;whiteSpace=wrap;html=1;align=center;fillColor=#ffe6cc;strokeColor=#d79b00;" parent="1" vertex="1">
          <mxGeometry x="850" y="780" width="100" height="40" as="geometry" />
        </mxCell>
        <mxCell id="tbVaFVSC6KCaD0kcT_PX-90" value="ISBN" style="ellipse;whiteSpace=wrap;html=1;align=center;fontStyle=4;fillColor=#ffe6cc;strokeColor=#d79b00;" parent="1" vertex="1">
          <mxGeometry x="748" y="800" width="100" height="40" as="geometry" />
        </mxCell>
        <mxCell id="tbVaFVSC6KCaD0kcT_PX-92" value="" style="endArrow=none;html=1;rounded=0;exitX=1;exitY=0.5;exitDx=0;exitDy=0;entryX=0;entryY=0.5;entryDx=0;entryDy=0;" parent="1" source="tbVaFVSC6KCaD0kcT_PX-72" target="tbVaFVSC6KCaD0kcT_PX-85" edge="1">
          <mxGeometry relative="1" as="geometry">
            <mxPoint x="870" y="748.67" as="sourcePoint" />
            <mxPoint x="1030" y="748.67" as="targetPoint" />
          </mxGeometry>
        </mxCell>
        <mxCell id="tbVaFVSC6KCaD0kcT_PX-93" value="" style="endArrow=none;html=1;rounded=0;exitX=1;exitY=0.75;exitDx=0;exitDy=0;entryX=0.5;entryY=0;entryDx=0;entryDy=0;" parent="1" source="tbVaFVSC6KCaD0kcT_PX-72" target="tbVaFVSC6KCaD0kcT_PX-87" edge="1">
          <mxGeometry relative="1" as="geometry">
            <mxPoint x="870" y="710" as="sourcePoint" />
            <mxPoint x="1060" y="750" as="targetPoint" />
          </mxGeometry>
        </mxCell>
        <mxCell id="tbVaFVSC6KCaD0kcT_PX-94" value="" style="endArrow=none;html=1;rounded=0;entryX=0;entryY=0;entryDx=0;entryDy=0;exitX=1;exitY=1;exitDx=0;exitDy=0;" parent="1" source="tbVaFVSC6KCaD0kcT_PX-72" target="tbVaFVSC6KCaD0kcT_PX-88" edge="1">
          <mxGeometry relative="1" as="geometry">
            <mxPoint x="860" y="720" as="sourcePoint" />
            <mxPoint x="960" y="720" as="targetPoint" />
          </mxGeometry>
        </mxCell>
        <mxCell id="tbVaFVSC6KCaD0kcT_PX-95" value="" style="endArrow=none;html=1;rounded=0;exitX=0.75;exitY=1;exitDx=0;exitDy=0;entryX=0.5;entryY=0;entryDx=0;entryDy=0;" parent="1" source="tbVaFVSC6KCaD0kcT_PX-72" target="tbVaFVSC6KCaD0kcT_PX-89" edge="1">
          <mxGeometry relative="1" as="geometry">
            <mxPoint x="870" y="720" as="sourcePoint" />
            <mxPoint x="1070" y="770" as="targetPoint" />
          </mxGeometry>
        </mxCell>
        <mxCell id="tbVaFVSC6KCaD0kcT_PX-96" value="" style="endArrow=none;html=1;rounded=0;exitX=0.5;exitY=1;exitDx=0;exitDy=0;entryX=0.5;entryY=0;entryDx=0;entryDy=0;" parent="1" source="tbVaFVSC6KCaD0kcT_PX-72" target="tbVaFVSC6KCaD0kcT_PX-90" edge="1">
          <mxGeometry relative="1" as="geometry">
            <mxPoint x="845" y="730" as="sourcePoint" />
            <mxPoint x="910" y="790" as="targetPoint" />
          </mxGeometry>
        </mxCell>
        <mxCell id="tbVaFVSC6KCaD0kcT_PX-97" value="" style="endArrow=none;html=1;rounded=0;exitX=0.25;exitY=1;exitDx=0;exitDy=0;entryX=0.5;entryY=0;entryDx=0;entryDy=0;" parent="1" source="tbVaFVSC6KCaD0kcT_PX-72" target="tbVaFVSC6KCaD0kcT_PX-86" edge="1">
          <mxGeometry relative="1" as="geometry">
            <mxPoint x="820" y="730" as="sourcePoint" />
            <mxPoint x="780" y="760" as="targetPoint" />
          </mxGeometry>
        </mxCell>
        <mxCell id="tbVaFVSC6KCaD0kcT_PX-98" value="" style="endArrow=none;html=1;rounded=0;exitX=0;exitY=1;exitDx=0;exitDy=0;entryX=0.5;entryY=0;entryDx=0;entryDy=0;" parent="1" source="tbVaFVSC6KCaD0kcT_PX-75" target="tbVaFVSC6KCaD0kcT_PX-72" edge="1">
          <mxGeometry relative="1" as="geometry">
            <mxPoint x="795" y="730" as="sourcePoint" />
            <mxPoint x="790" y="770" as="targetPoint" />
          </mxGeometry>
        </mxCell>
        <mxCell id="tbVaFVSC6KCaD0kcT_PX-99" value="" style="endArrow=none;html=1;rounded=0;exitX=0.5;exitY=1;exitDx=0;exitDy=0;entryX=1;entryY=0;entryDx=0;entryDy=0;" parent="1" source="tbVaFVSC6KCaD0kcT_PX-73" target="tbVaFVSC6KCaD0kcT_PX-75" edge="1">
          <mxGeometry relative="1" as="geometry">
            <mxPoint x="890" y="605" as="sourcePoint" />
            <mxPoint x="820" y="690" as="targetPoint" />
          </mxGeometry>
        </mxCell>
        <mxCell id="tbVaFVSC6KCaD0kcT_PX-100" value="" style="endArrow=none;html=1;rounded=0;exitX=0.5;exitY=1;exitDx=0;exitDy=0;entryX=0.5;entryY=0;entryDx=0;entryDy=0;" parent="1" source="tbVaFVSC6KCaD0kcT_PX-83" target="tbVaFVSC6KCaD0kcT_PX-73" edge="1">
          <mxGeometry relative="1" as="geometry">
            <mxPoint x="1000" y="490" as="sourcePoint" />
            <mxPoint x="950" y="575" as="targetPoint" />
          </mxGeometry>
        </mxCell>
        <mxCell id="tbVaFVSC6KCaD0kcT_PX-101" value="" style="endArrow=none;html=1;rounded=0;exitX=0.5;exitY=1;exitDx=0;exitDy=0;entryX=1;entryY=0;entryDx=0;entryDy=0;" parent="1" source="tbVaFVSC6KCaD0kcT_PX-82" target="tbVaFVSC6KCaD0kcT_PX-73" edge="1">
          <mxGeometry relative="1" as="geometry">
            <mxPoint x="1000" y="410" as="sourcePoint" />
            <mxPoint x="1000" y="450" as="targetPoint" />
          </mxGeometry>
        </mxCell>
        <mxCell id="tbVaFVSC6KCaD0kcT_PX-102" value="" style="endArrow=none;html=1;rounded=0;exitX=0.5;exitY=0;exitDx=0;exitDy=0;entryX=1;entryY=1;entryDx=0;entryDy=0;" parent="1" source="tbVaFVSC6KCaD0kcT_PX-84" target="tbVaFVSC6KCaD0kcT_PX-73" edge="1">
          <mxGeometry relative="1" as="geometry">
            <mxPoint x="1103.882735980284" y="444.2367286566416" as="sourcePoint" />
            <mxPoint x="1050" y="450" as="targetPoint" />
          </mxGeometry>
        </mxCell>
      </root>
    </mxGraphModel>
  </diagram>
</mxfile>
